<?xml version="1.0" encoding="utf-8"?>
<svg version="1.1" xmlns:xlink="http://www.w3.org/1999/xlink" width="129px" height="273px" xmlns="http://www.w3.org/2000/svg">
  <g transform="matrix(1 0 0 1 -20 0 )">
    <path d="M 20.5 241.228196721312  C 20.5 241.228196721312  20.5 23  20.5 23  C 20.5 10.5735931288071  30.5735931288071 0.5  43 0.5  C 43 0.5  126 0.5  126 0.5  C 138.426406871193 0.5  148.5 10.5735931288071  148.5 23  C 148.5 23  148.5 241.228196721312  148.5 241.228196721312  C 148.5 253.654603592504  138.426406871193 263.728196721312  126 263.728196721312  C 126 263.728196721312  75.6783420595189 263.728196721312  75.6783420595189 263.728196721312  C 75.6783420595189 263.728196721312  59.0771013177766 272.315264655622  59.0771013177766 272.315264655622  C 59.0771013177766 272.315264655622  45.9490024708345 263.728196721312  45.9490024708345 263.728196721312  C 45.9490024708345 263.728196721312  43 263.728196721312  43 263.728196721312  C 30.5735931288071 263.728196721312  20.5 253.654603592504  20.5 241.228196721312  Z " fill-rule="nonzero" fill="#ffffff" stroke="none" />
    <path d="M 20 241.228196721312  C 20 241.228196721312  20 23  20 23  C 20 10.2974507538918  30.2974507538918 0  43 0  C 43 0  126 0  126 0  C 138.702549246108 0  149 10.2974507538918  149 23  C 149 23  149 241.228196721312  149 241.228196721312  C 149 253.93074596742  138.702549246108 264.228196721312  126 264.228196721312  C 126 264.228196721312  75.8 264.228196721311  75.8 264.228196721311  C 75.8 264.228196721311  59.0476190476204 272.893442622952  59.0476190476204 272.893442622952  C 59.0476190476204 272.893442622952  45.8 264.228196721311  45.8 264.228196721311  C 45.8 264.228196721311  43 264.228196721312  43 264.228196721312  C 30.2974507538918 264.228196721312  20 253.93074596742  20 241.228196721312  Z M 21 241.228196721312  C 21 253.378461217589  30.8497355037225 263.228196721312  43 263.228196721312  C 43 263.228196721312  46.098004941673 263.228196721312  46.098004941673 263.228196721312  C 46.098004941673 263.228196721312  59.1065835879329 271.737086688292  59.1065835879329 271.737086688292  C 59.1065835879329 271.737086688292  75.556684119038 263.228196721312  75.556684119038 263.228196721312  C 75.556684119038 263.228196721312  126 263.228196721312  126 263.228196721312  C 138.150264496277 263.228196721312  148 253.378461217589  148 241.228196721312  C 148 241.228196721312  148 23  148 23  C 148 10.8497355037225  138.150264496277 1  126 1  C 126 1  43 1  43 1  C 30.8497355037225 1  21 10.8497355037225  21 23  C 21 23  21 241.228196721312  21 241.228196721312  Z " fill-rule="nonzero" fill="#d7d7d7" stroke="none" />
  </g>
</svg>