<svg t="1594622569231" class="icon" viewBox="0 0 1024 1024" version="1.1" xmlns="http://www.w3.org/2000/svg" p-id="3854" width="200" height="200"><path d="M697.89569581 982.04684642L324.6803121 978.03377778c-83.88608 0-151.97879309-68.22216691-151.97879308-151.97879309l0.38836148-611.28097186c0-83.88608 68.22216691-151.97879309 151.97879308-151.97879308l373.2153837 4.01306864c83.88608 0 151.97879309 68.22216691 151.97879309 151.97879309l-0.38836148 611.28097185c0.12945383 83.75662617-68.09271309 151.97879309-151.97879308 151.97879309zM325.06867358 113.28221235c-55.92405333 0-101.36234667 45.43829333-101.36234667 101.36234667l-0.38836148 611.28097184c0 55.92405333 45.43829333 101.36234667 101.36234667 101.36234667l373.21538371 4.01306864c55.92405333 0 101.36234667-45.43829333 101.36234666-101.36234667l0.38836148-611.28097185c0-55.92405333-45.43829333-101.36234667-101.36234667-101.36234667L325.06867358 113.28221235z" p-id="3855" fill="#8a8a8a"></path><path d="M621.25903013 133.86537086H401.70533925c-8.15559111 0-14.7577363-6.60214518-14.75773628-14.75773629v-4.7897916c0-8.15559111 6.60214518-14.7577363 14.75773628-14.7577363h219.55369088c8.15559111 0 14.7577363 6.60214518 14.75773629 14.7577363v4.7897916c0 8.02613728-6.60214518 14.7577363-14.75773629 14.75773629zM160.01504395 355.23141531v-133.33744198c0-6.99050667 5.69596839-12.68647506 12.68647507-12.68647506s12.68647506 5.69596839 12.68647506 12.68647506v133.33744198c0 6.99050667-5.69596839 12.68647506-12.68647506 12.68647506s-12.68647506-5.69596839-12.68647507-12.68647506zM837.57637531 432.64480395V301.50807703c0-7.1199605 5.82542222-12.81592889 12.81592888-12.81592888h0.64726914c7.1199605 0 12.81592889 5.82542222 12.81592889 12.81592888v131.13672692c0 7.1199605-5.82542222 12.81592889-12.81592889 12.81592888h-0.64726914c-6.99050667 0-12.81592889-5.82542222-12.81592888-12.81592888zM160.01504395 527.79336691V433.03316543c0-5.95487605 4.91924543-10.87412148 10.87412148-10.87412148h3.62470716c5.95487605 0 10.87412148 4.91924543 10.87412149 10.87412148v94.76020148c0 5.95487605-4.91924543 10.87412148-10.87412149 10.87412148h-3.62470716c-5.95487605 0-10.87412148-4.91924543-10.87412148-10.87412148zM584.75305086 837.18801383h-159.22820739c-9.32067555 0-17.08790518-7.63777581-17.0879052-17.08790519 0-9.32067555 7.63777581-17.08790518 17.0879052-17.08790517h159.09875356c9.32067555 0 17.08790518 7.63777581 17.08790519 17.08790517 0 9.45012939-7.63777581 17.08790518-16.95845136 17.08790519z" p-id="3856" fill="#8a8a8a"></path></svg>