<svg t="1594198611338" class="icon" viewBox="0 0 1024 1024" version="1.1" xmlns="http://www.w3.org/2000/svg" p-id="6581" width="200" height="200"><path d="M872.058472 865.568664l-9.049097 9.041934c-4.996804 4.996804-16.790408 1.308809-26.334785-8.243755L652.783397 682.476673c-0.030699 0.026606-0.065492 0.050142-0.096191 0.076748l-27.746948-27.746948c0.088004-0.471744-0.11154-0.99363 0.306992-1.412163l5.169743-2.394537c51.706639-46.813189 84.384899-114.254184 84.384899-189.494819 0-141.303236-114.554012-255.849062-255.853156-255.849062-141.30733 0-255.857249 114.545826-255.857249 255.849062 0 141.299143 114.549919 255.850086 255.857249 255.850086 28.741601 0 56.258305-4.973268 82.021062-13.738909l15.615653 35.131125c-30.56411 10.837836-63.33856 16.98586-97.636714 16.98586-162.498978 0-294.231231-131.732254-294.231231-294.227138 0-162.503071 131.732254-294.235324 294.231231-294.235324 162.495908 0 294.231231 131.732254 294.231231 294.235324 0 74.338079-27.788903 142.040017-73.263607 193.83466l183.898357 183.887101C873.356025 848.77928 877.052207 860.57186 872.058472 865.568664z" p-id="6582" fill="#8a8a8a"></path></svg>